<svg xmlns:dc="http://purl.org/dc/elements/1.1/" xmlns:cc="http://creativecommons.org/ns#" xmlns:rdf="http://www.w3.org/1999/02/22-rdf-syntax-ns#" xmlns:svg="http://www.w3.org/2000/svg" xmlns="http://www.w3.org/2000/svg" xmlns:sodipodi="http://sodipodi.sourceforge.net/DTD/sodipodi-0.dtd" xmlns:inkscape="http://www.inkscape.org/namespaces/inkscape" version="1.1" x="0px" y="0px" viewBox="0 0 489.4 611.75" style="enable-background:new 0 0 489.4 489.4;" xml:space="preserve"><path d="M 84.699219 31.050781 C 80.399219 31.050781 76.400781 33.350391 74.300781 37.150391 L 1.5996094 165.15039 C 0.59960938 166.95039 2.9605947e-016 168.95078 0 171.05078 C 0 199.75078 17.3 224.35 42 235.25 L 42 446.34961 C 42 452.94961 47.4 458.34961 54 458.34961 L 120.30078 458.34961 L 120.59961 458.34961 L 213.59961 458.34961 L 213.90039 458.34961 L 435.30078 458.34961 C 441.90078 458.34961 447.30078 452.94961 447.30078 446.34961 L 447.30078 236.75 C 447.30078 236.25 447.29922 235.84922 447.19922 235.44922 C 471.99922 224.54922 489.40039 199.85078 489.40039 171.05078 C 489.40039 168.95078 488.90078 166.95039 487.80078 165.15039 L 415 37.150391 C 412.9 33.450391 408.89961 31.050781 404.59961 31.050781 L 84.699219 31.050781 z M 91.699219 55.150391 L 397.59961 55.150391 L 454.5 155.25 L 34.900391 155.25 L 91.699219 55.150391 z M 24.800781 179.15039 L 115.69922 179.15039 C 111.89922 200.75039 92.899219 217.15039 70.199219 217.15039 C 47.499219 217.25039 28.600781 200.75039 24.800781 179.15039 z M 141.09961 179.15039 L 232 179.15039 C 228.2 200.75039 209.29961 217.15039 186.59961 217.15039 C 163.89961 217.15039 144.99961 200.75039 141.09961 179.15039 z M 257.5 179.15039 L 348.30078 179.15039 C 344.50078 200.75039 325.60039 217.15039 302.90039 217.15039 C 280.20039 217.15039 261.3 200.75039 257.5 179.15039 z M 373.80078 179.25 L 464.69922 179.25 C 460.79922 200.75 441.89922 217.25 419.19922 217.25 C 396.49922 217.25 377.60078 200.85 373.80078 179.25 z M 128.40039 210.25 C 141.00039 228.95 162.39961 241.25 186.59961 241.25 C 210.79961 241.25 232.10078 228.95 244.80078 210.25 C 257.40078 228.95 278.80039 241.25 302.90039 241.25 C 327.10039 241.25 348.4 228.95 361 210.25 C 373.6 228.95 394.99922 241.25 419.19922 241.25 C 420.59922 241.25 421.90078 241.15039 423.30078 241.15039 L 423.30078 434.34961 L 225.59961 434.34961 L 225.59961 304.84961 C 225.59961 282.24961 207.2 263.75 184.5 263.75 L 149.59961 263.75 C 126.99961 263.75 108.5 282.14961 108.5 304.84961 L 108.5 434.44922 L 66 434.44922 L 66 241.15039 C 67.4 241.25039 68.799219 241.25 70.199219 241.25 C 94.399219 241.25 115.80039 228.95 128.40039 210.25 z M 281.19922 263.75 C 262.99922 263.75 248.19922 278.55 248.19922 296.75 L 248.19922 347.75 C 248.19922 365.95 262.99922 380.75 281.19922 380.75 L 347.69922 380.75 C 365.89922 380.75 380.69922 365.95 380.69922 347.75 L 380.69922 296.75 C 380.69922 278.55 365.89922 263.75 347.69922 263.75 L 281.19922 263.75 z M 149.69922 287.75 L 184.59961 287.75 C 193.99961 287.75 201.69922 295.34961 201.69922 304.84961 L 201.69922 434.34961 L 201.59961 434.34961 L 132.59961 434.34961 L 132.59961 304.84961 C 132.59961 295.44961 140.19922 287.75 149.69922 287.75 z M 281.19922 287.75 L 347.69922 287.75 C 352.69922 287.75 356.69922 291.85 356.69922 296.75 L 356.69922 347.75 C 356.69922 352.75 352.59922 356.75 347.69922 356.75 L 281.19922 356.75 C 276.19922 356.75 272.19922 352.65 272.19922 347.75 L 272.19922 296.75 C 272.19922 291.75 276.29922 287.75 281.19922 287.75 z "/></svg>
